<svg width="20" height="21" viewBox="0 0 20 21" fill="none" xmlns="http://www.w3.org/2000/svg">
<path d="M10 0C12.717 0 13.056 0.0103444 14.122 0.0620669C15.187 0.113789 15.912 0.286543 16.55 0.543086C17.21 0.805836 17.766 1.16169 18.322 1.73581C18.8305 2.25292 19.2239 2.87847 19.475 3.56885C19.722 4.2278 19.89 4.97881 19.94 6.0805C19.987 7.18322 20 7.5339 20 10.3445C20 13.1551 19.99 13.5058 19.94 14.6085C19.89 15.7102 19.722 16.4602 19.475 17.1201C19.2247 17.8109 18.8311 18.4366 18.322 18.9532C17.8219 19.479 17.2173 19.886 16.55 20.1459C15.913 20.4014 15.187 20.5752 14.122 20.6269C13.056 20.6755 12.717 20.689 10 20.689C7.283 20.689 6.944 20.6786 5.878 20.6269C4.813 20.5752 4.088 20.4014 3.45 20.1459C2.78233 19.8868 2.17753 19.4797 1.678 18.9532C1.16941 18.4361 0.775933 17.8106 0.525 17.1201C0.277 16.4612 0.11 15.7102 0.0599999 14.6085C0.0129999 13.5058 0 13.1551 0 10.3445C0 7.5339 0.00999989 7.18322 0.0599999 6.0805C0.11 4.97777 0.277 4.22883 0.525 3.56885C0.775239 2.87801 1.16881 2.25233 1.678 1.73581C2.17767 1.20951 2.78244 0.802451 3.45 0.543086C4.088 0.286543 4.812 0.113789 5.878 0.0620669C6.944 0.0134477 7.283 0 10 0ZM10 5.17225C8.67394 5.17225 7.40217 5.71717 6.46444 6.68714C5.52678 7.65717 5 8.97276 5 10.3445C5 11.7162 5.52678 13.0318 6.46444 14.0019C7.40217 14.9718 8.67394 15.5167 10 15.5167C11.3261 15.5167 12.5978 14.9718 13.5356 14.0019C14.4732 13.0318 15 11.7162 15 10.3445C15 8.97276 14.4732 7.65717 13.5356 6.68714C12.5978 5.71717 11.3261 5.17225 10 5.17225ZM16.5 4.91364C16.5 4.57072 16.3683 4.24182 16.1339 3.9993C15.8994 3.75683 15.5815 3.62057 15.25 3.62057C14.9185 3.62057 14.6006 3.75683 14.3661 3.9993C14.1317 4.24182 14 4.57072 14 4.91364C14 5.25656 14.1317 5.58545 14.3661 5.82797C14.6006 6.07044 14.9185 6.2067 15.25 6.2067C15.5815 6.2067 15.8994 6.07044 16.1339 5.82797C16.3683 5.58545 16.5 5.25656 16.5 4.91364ZM10 7.24115C10.7957 7.24115 11.5587 7.56809 12.1213 8.15008C12.6839 8.73208 13 9.52142 13 10.3445C13 11.1676 12.6839 11.9569 12.1213 12.5389C11.5587 13.1209 10.7957 13.4478 10 13.4478C9.20433 13.4478 8.44128 13.1209 7.87867 12.5389C7.31606 11.9569 7 11.1676 7 10.3445C7 9.52142 7.31606 8.73208 7.87867 8.15008C8.44128 7.56809 9.20433 7.24115 10 7.24115Z" fill="#F5FAFF"/>
</svg>
