<svg width="30" height="30" viewBox="0 0 30 30" fill="none" xmlns="http://www.w3.org/2000/svg">
<path d="M14.18 0.00276184C13.8106 0.0185204 13.3307 0.053978 12.9993 0.0914059C10.5523 0.367193 8.22335 1.27138 6.20099 2.73107C4.75372 3.77709 3.47022 5.11859 2.4838 6.61965C0.314804 9.91924 -0.475479 13.9516 0.278623 17.8776C0.874668 20.9901 2.46476 23.8661 4.78228 26.0251C5.19361 26.4093 6.05626 27.1165 6.11148 27.1165C6.1191 27.1165 6.14005 27.083 6.161 27.0436C6.32477 26.7067 6.59518 25.2864 6.68087 24.2995C6.71324 23.9193 6.71324 22.367 6.68087 21.9652C6.61612 21.191 6.55899 20.7163 6.46568 20.2139C6.40094 19.8633 6.37618 19.751 6.18575 18.9808C5.99532 18.2125 5.93438 17.789 5.93438 17.2276C5.93438 16.5913 6.01056 16.15 6.28668 15.2104C6.56661 14.251 6.63707 13.8098 6.68658 12.6869C6.75895 11.0421 6.85987 10.3979 7.136 9.83847C7.27311 9.56071 7.38546 9.41888 7.81012 8.96974C8.60421 8.13647 8.6899 7.90994 8.52042 7.12198C8.4233 6.67875 8.39664 6.39508 8.42521 6.13309C8.48233 5.5894 8.68038 5.17572 9.09361 4.73249C9.61349 4.17698 10.1905 3.81649 10.7618 3.69238C10.9465 3.65101 11.2531 3.65889 11.4092 3.71011C11.6454 3.78497 11.7692 3.89331 11.872 4.12379C11.9196 4.2282 11.9234 4.2538 11.9215 4.49216C11.9215 4.71279 11.9139 4.77189 11.8682 4.92554C11.7958 5.17178 11.5997 5.57167 11.4207 5.84154C10.8608 6.67875 10.6951 6.9762 10.619 7.28745C10.5733 7.47262 10.5694 7.70507 10.6094 7.84296C10.6761 8.07344 10.9122 8.35907 11.3331 8.71366C11.9005 9.19431 12.0853 9.40706 12.3309 9.87393C12.6394 10.457 12.8851 11.0913 13.3592 12.5274C13.5497 13.1006 13.6487 13.2897 13.8677 13.5064C14.2524 13.8827 14.7817 14.0678 15.6634 14.1368C16.608 14.2077 17.3697 14.0718 18.1504 13.6916C18.8055 13.3744 19.3045 12.9214 19.4378 12.5274C19.4835 12.3934 19.4854 12.1157 19.4435 11.8872C19.4282 11.7965 19.373 11.6055 19.3216 11.4656C19.1216 10.9121 19.1083 10.6737 19.2549 10.2187C19.4625 9.58041 19.9595 8.85549 20.4508 8.4753C20.8469 8.16996 21.1859 8.03601 21.6067 8.01434C22.0866 7.99267 22.4218 8.15814 22.5741 8.49697C22.6198 8.59743 22.6255 8.63289 22.6255 8.82594C22.6255 9.16279 22.5913 9.24553 22.0638 10.2246C21.6982 10.9022 21.5344 11.243 21.4563 11.4873C21.3478 11.8202 21.3859 12.0782 21.5591 12.1807C21.6277 12.2201 21.6544 12.224 21.8162 12.2181C22.039 12.2083 22.2256 12.1472 22.5494 11.9778C22.9588 11.7631 23.2597 11.5503 23.7853 11.1031C24.4099 10.5732 24.6193 10.3132 25.0916 9.48586C25.2535 9.20022 25.3144 9.11355 25.442 8.98156C25.821 8.58955 26.2723 8.55212 26.5789 8.88898C26.7693 9.09779 26.8512 9.40509 26.8074 9.74391C26.7617 10.1024 26.6455 10.394 26.3865 10.7939C26.1047 11.2272 25.8229 11.57 24.8155 12.6968C23.909 13.7133 23.5282 14.1821 23.2159 14.6647C22.8998 15.1552 22.7722 15.4724 22.755 15.8092C22.736 16.1697 22.7988 17.0227 22.8941 17.6609C23.1702 19.5205 23.8881 21.5653 24.8974 23.3638C25.2497 23.9902 25.5334 24.4118 25.7067 24.5674L25.7867 24.6364L25.84 24.5713C25.8705 24.5359 25.9733 24.4039 26.0704 24.2798C28.527 21.1201 29.6162 17.1744 29.1459 13.14C28.8297 10.4196 27.7595 7.81144 26.0742 5.64455C25.3373 4.69703 24.4213 3.78103 23.4768 3.04823C21.1821 1.26547 18.4856 0.23127 15.6082 0.0323105C15.2997 0.0106411 14.4275 -0.00708771 14.18 0.00276184Z" fill="#F04634"/>
<path d="M14.3512 16.0772C14.3245 16.0811 14.2445 16.0949 14.1703 16.1068C13.2353 16.2624 12.7649 17.1488 12.6087 19.0498C12.5402 19.8988 12.5269 21.2541 12.5611 24.1124C12.5878 26.3364 12.6411 27.2052 12.8087 28.0621C13.0163 29.1298 13.3095 29.5631 14.0084 29.833C14.1855 29.9 14.235 29.9118 14.4369 29.9217C14.7054 29.9374 15.5242 29.9059 15.9698 29.8626C16.6135 29.8015 17.3257 29.6833 17.937 29.5395C18.1998 29.4765 18.3083 29.4252 18.6016 29.2184C18.7939 29.0845 18.9767 28.8914 19.0453 28.7515C19.2662 28.3004 19.2243 26.9353 18.9101 24.339C18.8034 23.4584 18.3883 20.5292 18.1979 19.3157C18.0703 18.5041 17.8932 17.9663 17.6056 17.5152C17.4837 17.3222 17.1905 17.005 16.9962 16.8553C16.5468 16.5027 15.9527 16.2663 15.191 16.1324C14.932 16.0871 14.4654 16.0555 14.3512 16.0772Z" fill="#F04634"/>
<path d="M9.21726 21.7271C8.5679 22.0246 8.37176 26.4706 8.92591 28.3283C8.95828 28.4366 9.01541 28.5922 9.05159 28.6769L9.11824 28.8266L9.30105 28.8995C9.40388 28.9409 9.59051 29.0118 9.71809 29.0591L9.95042 29.1438L9.99993 29.0827C10.1351 28.9173 10.2284 28.5804 10.2761 28.082C10.3008 27.8181 10.3027 26.8233 10.2761 26.3387C10.1599 24.091 9.8552 22.3201 9.50291 21.8414C9.41341 21.7232 9.31438 21.6818 9.21726 21.7271Z" fill="#F04634"/>
<path d="M21.2867 22.0676C21.0487 22.1878 20.9116 22.7394 20.8887 23.6593C20.8544 25.0658 21.121 26.7422 21.5076 27.5774C21.6333 27.8453 21.6638 27.8729 21.8523 27.8808L21.9989 27.8887L22.1989 27.7665C22.5016 27.5794 23.071 27.1854 23.3586 26.9628C23.5985 26.7796 23.6195 26.7579 23.6576 26.6575C23.7261 26.4822 23.7623 26.3068 23.7623 26.1689C23.7604 25.5839 23.1358 23.9981 22.5264 23.0289C22.1113 22.373 21.7475 22.0341 21.4562 22.0341C21.3972 22.0341 21.321 22.0499 21.2867 22.0676Z" fill="#F04634"/>
</svg>
