<svg width="22" height="22" viewBox="0 0 22 22" fill="none" xmlns="http://www.w3.org/2000/svg">
<path d="M1.7315 5.8145L9.9815 10.2464C10.2587 10.3949 10.6173 10.4653 10.9781 10.4653C11.3389 10.4653 11.6975 10.3949 11.9747 10.2464L20.2247 5.8145C20.7626 5.5252 21.2708 4.3999 20.2841 4.3999H1.6732C0.686499 4.3999 1.1947 5.5252 1.7315 5.8145ZM20.4744 8.2378L11.9747 12.6675C11.6007 12.8633 11.3389 12.8864 10.9781 12.8864C10.6173 12.8864 10.3555 12.8633 9.9815 12.6675C9.6075 12.4717 2.1352 8.5546 1.5247 8.2367C1.0957 8.0123 1.1001 8.2752 1.1001 8.4776V16.4999C1.1001 16.9619 1.7227 17.5999 2.2001 17.5999H19.8001C20.2775 17.5999 20.9001 16.9619 20.9001 16.4999V8.4787C20.9001 8.2763 20.9045 8.0134 20.4744 8.2378Z" fill="white"/>
</svg>
