<svg width="20" height="20" viewBox="0 0 20 20" fill="none" xmlns="http://www.w3.org/2000/svg">
<g clipPath="url(#clip0_19_34)">
<path d="M3.00638 0.262281C2.83398 0.312082 2.70758 0.42308 1.69278 1.43408C0.375381 2.74768 0.440381 2.63668 0.444181 3.49068C0.455581 5.40548 1.75018 8.07488 3.94458 10.7099C5.22378 12.2457 7.37598 14.3789 9.24118 15.9491C12.4274 18.6413 15.2462 20.1119 16.51 19.7443C16.7054 19.6869 16.782 19.6179 18.0458 18.3579C19.436 16.9715 19.4858 16.9103 19.5508 16.5235C19.5662 16.4163 19.5546 16.2899 19.5124 16.1405C19.4512 15.9221 19.4166 15.8877 17.72 14.1835C16.5826 13.0461 15.9354 12.4257 15.832 12.3759C15.6406 12.2801 15.3264 12.2763 15.066 12.3605C14.9012 12.4179 14.7442 12.5597 13.76 13.5401C13.1434 14.1529 12.5766 14.6853 12.5038 14.7273C12.205 14.8843 12.4234 15.0759 8.58218 11.2575C6.65218 9.34268 5.05898 7.73788 5.04378 7.69208C5.02458 7.64608 5.01698 7.52348 5.02838 7.42408C5.04378 7.24028 5.04378 7.24028 6.15818 6.11808C7.41438 4.85808 7.46798 4.78528 7.46798 4.33348C7.46798 4.17268 7.44118 4.03088 7.39518 3.93128C7.34538 3.82788 6.74418 3.20368 5.58758 2.04708C3.72638 0.193481 3.72638 0.193481 3.35478 0.20108C3.27058 0.200882 3.11358 0.227682 3.00638 0.262281Z" fill="#FFF9F9"/>
</g>
<defs>
<clipPath id="clip0_19_34">
<rect width="20" height="20" fill="white"/>
</clipPath>
</defs>
</svg>
