<svg width="20" height="21" viewBox="0 0 20 21" fill="none" xmlns="http://www.w3.org/2000/svg">
<path fill-rule="evenodd" clip-rule="evenodd" d="M10 20.689C15.5229 20.689 20 16.0576 20 10.3445C20 4.63139 15.5229 0 10 0C4.47715 0 0 4.63139 0 10.3445C0 16.0576 4.47715 20.689 10 20.689ZM12.7063 15.3523L14.4761 6.00369V6.00457C14.4761 6.00457 14.5 5.88214 14.5 5.76013C14.5 5.57672 14.3425 5.51574 14.2043 5.51574C13.98 5.51486 13.6725 5.63004 13.6725 5.63004L3.601 9.76898C3.601 9.76898 3.1598 9.91442 3.1598 10.2198C3.1598 10.5867 3.58865 10.7147 3.58865 10.7147L5.99555 11.3771L5.9983 11.3785L5.9951 11.3805C5.9951 11.3805 6.99015 14.2603 7.14145 14.7589C7.29405 15.258 7.4157 15.2695 7.4157 15.2695L7.41615 15.2691C7.4485 15.2841 7.4838 15.2912 7.51925 15.29C7.61365 15.2879 7.68375 15.2315 7.68375 15.2315L9.30205 13.5827L11.7055 15.6453C11.7055 15.6453 11.8457 15.7792 12.1179 15.7792C12.6304 15.7792 12.7063 15.3523 12.7063 15.3523Z" fill="#F1F7FC"/>
</svg>
